<svg width="162" height="160" viewBox="0 0 162 160" fill="none" xmlns="http://www.w3.org/2000/svg">
<path d="M0 15C0 12.2386 2.23858 10 5 10H83C85.7614 10 88 12.2386 88 15V20C88 22.7614 85.7614 25 83 25H20C17.2386 25 15 27.2386 15 30V140C15 142.761 17.2386 145 20 145H130C132.761 145 135 142.761 135 140V73C135 70.2386 137.239 68 140 68H145C147.761 68 150 70.2386 150 73V155C150 157.761 147.761 160 145 160H5C2.23858 160 0 157.761 0 155V15Z" fill="white"/>
<path d="M154.5 51C150.358 51 147 47.6421 147 43.5V24.066L70.9099 100.156C67.981 103.085 63.2322 103.085 60.3033 100.156V100.156C57.3744 97.2272 57.3744 92.4785 60.3033 89.5495L134.853 15H118.5C114.358 15 111 11.6421 111 7.5V7.5C111 3.35786 114.358 0 118.5 0H152C157.523 0 162 4.47715 162 10V43.5C162 47.6421 158.642 51 154.5 51V51Z" fill="white"/>
</svg>
