<svg width="9" height="9" viewBox="0 0 9 9" fill="none" xmlns="http://www.w3.org/2000/svg">
<path d="M4.00284 5.63131V5.59817C4.00652 5.24648 4.04335 4.96659 4.11332 4.75852C4.18329 4.55045 4.28272 4.38197 4.41162 4.25308C4.54051 4.12418 4.69518 4.00542 4.87563 3.89678C4.98427 3.83049 5.08186 3.75224 5.1684 3.66201C5.25495 3.56994 5.32307 3.46407 5.37279 3.34438C5.42435 3.22469 5.45013 3.09212 5.45013 2.94665C5.45013 2.7662 5.40778 2.60969 5.32307 2.47711C5.23837 2.34454 5.12513 2.24235 4.98335 2.17053C4.84157 2.09872 4.68413 2.06282 4.51105 2.06282C4.36006 2.06282 4.21459 2.09412 4.07465 2.15672C3.93471 2.21933 3.81779 2.31784 3.72388 2.45226C3.62997 2.58667 3.57565 2.76252 3.56092 2.9798H2.8649C2.87963 2.66677 2.96065 2.39886 3.10795 2.17606C3.2571 1.95326 3.4532 1.78293 3.69626 1.66509C3.94116 1.54724 4.21275 1.48832 4.51105 1.48832C4.83512 1.48832 5.11685 1.55277 5.35622 1.68166C5.59743 1.81055 5.78341 1.98732 5.91414 2.21196C6.04672 2.43661 6.11301 2.69255 6.11301 2.9798C6.11301 3.18234 6.0817 3.36556 6.0191 3.52943C5.95833 3.69331 5.86995 3.8397 5.75395 3.96859C5.63978 4.09749 5.50168 4.21165 5.33965 4.31108C5.17761 4.41235 5.0478 4.51915 4.95021 4.63147C4.85261 4.74195 4.78172 4.87361 4.73753 5.02644C4.69334 5.17927 4.6694 5.36984 4.66572 5.59817V5.63131H4.00284ZM4.35638 7.26641C4.22012 7.26641 4.10319 7.21762 4.0056 7.12003C3.90801 7.02244 3.85922 6.90551 3.85922 6.76926C3.85922 6.633 3.90801 6.51607 4.0056 6.41848C4.10319 6.32089 4.22012 6.2721 4.35638 6.2721C4.49263 6.2721 4.60956 6.32089 4.70715 6.41848C4.80474 6.51607 4.85354 6.633 4.85354 6.76926C4.85354 6.85948 4.83052 6.94234 4.78449 7.01783C4.74029 7.09333 4.68045 7.15409 4.60496 7.20013C4.5313 7.24432 4.44844 7.26641 4.35638 7.26641Z" fill="#6B7280"/>
<path d="M4.5 8.5C6.70914 8.5 8.5 6.70914 8.5 4.5C8.5 2.29086 6.70914 0.5 4.5 0.5C2.29086 0.5 0.5 2.29086 0.5 4.5C0.5 6.70914 2.29086 8.5 4.5 8.5Z" stroke="#6B7280"/>
</svg>
